<svg width="324" height="436" viewBox="0 0 324 436" fill="none" xmlns="http://www.w3.org/2000/svg">
<path d="M117.5 374L97.5 377.5L94 397L116 421.5L142.5 417L158 394L173 351L182.5 356.5L204.5 351L206 369L213 401L251.5 424L275.5 409.5L274.5 385.5L268 364.5L266.5 355.5L254 346.5L241 329.5L236.5 313C238.667 304.5 243 287.2 243 286C243 284.8 255 272.833 261 267L283 237.5L290 220V182L272 133.5L241.5 106L207 91.4999L89 182L92 224L109 262.5L133 305.5L104 353.5L109 362.5H121.5L126 393L117.5 374Z" fill="url(#paint0_linear_43_10)"/>
<path d="M15.5 146L55 135L71.5 151L184.5 63.9999L171.5 47.9999L191.5 12.4999L71.5 24.9999L15.5 146Z" fill="#CE8FFF"/>
<path d="M89.0092 318.588C92.2279 315.435 93.4375 312.221 93.8163 309.75C94.1952 307.279 93.5387 302.322 89.3397 298.036C85.1407 293.75 84.4191 295.157 82.3052 294.429C80.1912 293.7 76.9985 294.728 74.8701 295.413C73.8327 295.878 73.5019 295.837 72.3845 296.449C70.7932 297.32 68.4479 298.905 67.3988 299.933C65.6131 301.683 59.8987 307.282 58.2843 315.092C56.7791 322.374 57.6012 331.932 65.8795 341.25C77.883 354.76 98.5485 353.963 108.525 346.366C111.732 343.924 115.654 340.782 119.24 335.869C123.722 329.727 127.126 325.342 128.692 310.508C128.749 304.906 127.5 289 116 277.5" stroke="black" stroke-width="21" stroke-linecap="round" stroke-linejoin="round"/>
<path d="M282.05 319.252C278.832 316.098 277.622 312.884 277.243 310.413C276.865 307.942 277.521 302.985 281.72 298.7C285.919 294.414 286.641 295.821 288.755 295.092C290.869 294.363 294.061 295.391 296.19 296.077C297.227 296.541 297.558 296.5 298.675 297.112C300.266 297.983 302.612 299.569 303.661 300.597C305.447 302.346 311.161 307.945 312.775 315.755C314.281 323.037 313.459 332.595 305.18 341.913C293.177 355.423 272.511 354.627 262.534 347.03C259.327 344.588 255.406 341.446 251.82 336.532C247.338 330.391 243.934 326.006 242.368 311.172C242.31 305.57 244.5 288.5 256 277" stroke="black" stroke-width="21" stroke-linecap="round" stroke-linejoin="round"/>
<path d="M201.651 375.657C205.859 389.454 207.469 394.807 210.794 401.979M201.651 375.657C199.556 368.787 198.699 362.334 197.629 352M201.651 375.657L201.89 376.442C205.921 389.66 207.533 394.944 210.794 401.979M245.254 391.847C242.392 388.367 241.535 385.042 241.423 382.544C241.311 380.047 242.496 375.189 247.13 371.378C251.765 367.568 252.331 369.044 254.511 368.546C256.691 368.048 259.755 369.413 261.798 370.322C262.779 370.895 263.112 370.89 264.158 371.618C265.646 372.655 267.808 374.483 268.741 375.618C270.329 377.549 275.41 383.728 276.177 391.666C276.893 399.068 275.05 408.483 265.82 416.858C252.437 429.003 231.976 425.995 222.872 417.372C219.945 414.6 214.119 409.152 210.794 401.979" stroke="black" stroke-width="21" stroke-linecap="round" stroke-linejoin="round"/>
<path d="M124.26 391.847C127.122 388.367 127.98 385.042 128.091 382.544C128.203 380.047 127.019 375.189 122.384 371.378C117.75 367.568 117.183 369.044 115.003 368.546C112.823 368.048 109.759 369.413 107.717 370.322C106.735 370.895 106.402 370.89 105.356 371.618C103.868 372.655 101.706 374.483 100.773 375.618C99.1855 377.549 94.1045 383.728 93.3371 391.666C92.6216 399.068 94.464 408.483 103.694 416.858C117.077 429.003 137.538 425.995 146.642 417.372C149.569 414.6 155.395 409.152 158.72 401.979C162.045 394.807 163.655 389.454 167.863 375.657C169.958 368.787 170.816 362.334 171.886 352" stroke="black" stroke-width="21" stroke-linecap="round" stroke-linejoin="round"/>
<path d="M116 277.5C95.2812 256.986 81 228.046 81 195.976C81 188.655 81.6728 181.497 82.9577 174.565L201.353 83.9999C255.7 90.13 298 137.925 298 195.976C298 232.324 278.351 257.409 255.5 277.5" stroke="black" stroke-width="21"/>
<path d="M56.605 132.118L70.9999 151L182.517 65.982L168.122 47.1003" stroke="black" stroke-width="15"/>
<path d="M47.3323 138.628L170.929 44.719" stroke="black" stroke-width="9"/>
<path d="M55.4999 137L15.5 146L69.5 25.5L195 11L170.5 51" stroke="black" stroke-width="17"/>
<path d="M7 162.14C7 161.186 7.67292 160.365 8.60777 160.178L14.6078 158.978C15.8453 158.731 17 159.677 17 160.94V178.5C17 179.605 16.1046 180.5 15 180.5H9C7.89543 180.5 7 179.605 7 178.5V162.14Z" fill="black"/>
<circle cx="12" cy="188" r="6" fill="black"/>
<path d="M7.27829 195.697C7.41033 195.282 7.79574 195 8.23122 195H15.7688C16.2043 195 16.5897 195.282 16.7217 195.697L19.5853 204.697C19.7906 205.342 19.3092 206 18.6324 206L5.36758 206C4.69078 206 4.20945 205.342 4.41466 204.697L7.27829 195.697Z" fill="black"/>
<mask id="path-14-inside-1_43_10" fill="white">
<path d="M230.498 195.027C240.997 194.527 259.496 201.028 261.996 210.529C262.433 212.189 262.398 214.57 262.25 216.248C262.172 217.127 261.231 217.52 260.496 217.03C256.837 215.033 253.008 213.366 249.053 212.048L247.497 211.529L242.997 210.029L236.998 208.529L233.998 208.029L229.998 207.529H223.999C221.006 207.529 218.021 207.824 215.087 208.411L211.999 209.029L202.154 210.506C202.052 210.521 201.953 210.552 201.861 210.599C201.12 210.969 200.289 210.308 200.539 209.517C202.043 204.75 204.52 203.461 212.499 199.027C219.499 196.027 224.362 195.319 230.498 195.027Z"/>
</mask>
<path d="M261.996 210.529L282.305 205.186V205.186L261.996 210.529ZM230.498 195.027L229.499 174.051L230.498 195.027ZM262.25 216.248L241.331 214.404V214.404L262.25 216.248ZM229.998 207.529V186.529C230.869 186.529 231.739 186.583 232.603 186.691L229.998 207.529ZM215.087 208.411L219.206 229.003H219.206L215.087 208.411ZM211.999 209.029L216.119 229.621C215.785 229.687 215.451 229.746 215.115 229.796L211.999 209.029ZM202.154 210.506L205.27 231.273L205.269 231.273L202.154 210.506ZM233.998 208.029L236.603 187.191C236.887 187.226 237.169 187.268 237.451 187.314L233.998 208.029ZM242.997 210.029L248.092 189.656C248.613 189.787 249.129 189.937 249.639 190.107L242.997 210.029ZM236.998 208.529L240.451 187.815C241.002 187.906 241.55 188.02 242.092 188.156L236.998 208.529ZM249.053 212.048L255.695 192.126L255.695 192.126L249.053 212.048ZM247.497 211.529L240.855 231.451L240.855 231.451L247.497 211.529ZM212.499 199.027L202.299 180.671C202.925 180.323 203.568 180.008 204.226 179.726L212.499 199.027ZM200.539 209.517L220.565 215.837L220.565 215.837L200.539 209.517ZM260.496 217.03L270.554 198.595C271.099 198.892 271.63 199.213 272.147 199.558L260.496 217.03ZM201.861 210.599L192.468 191.816L192.468 191.816L201.861 210.599ZM241.687 215.872C242.52 219.039 244.163 220.26 243.792 219.94C243.544 219.727 242.606 219.049 240.788 218.248C239.052 217.484 237.062 216.852 235.151 216.447C233.151 216.024 231.877 215.985 231.497 216.003L229.499 174.051C238.675 173.614 249.175 176.052 257.706 179.806C262.137 181.757 266.949 184.454 271.201 188.116C275.329 191.672 280.222 197.269 282.305 205.186L241.687 215.872ZM241.331 214.404C241.337 214.336 241.343 214.239 241.347 214.133C241.351 214.024 241.35 213.959 241.35 213.948C241.349 213.926 241.351 214.049 241.38 214.297C241.405 214.518 241.479 215.081 241.687 215.872L282.305 205.186C283.706 210.512 283.361 215.906 283.169 218.091L241.331 214.404ZM229.998 228.529H223.999V186.529H229.998V228.529ZM219.206 229.003L216.119 229.621L207.88 188.437L210.967 187.819L219.206 229.003ZM215.115 229.796L205.27 231.273L199.038 189.738L208.884 188.261L215.115 229.796ZM231.393 228.866L227.393 228.366L232.603 186.691L236.603 187.191L231.393 228.866ZM237.903 230.402L231.904 228.901L242.092 188.156L248.092 189.656L237.903 230.402ZM233.545 229.243L230.545 228.743L237.451 187.314L240.451 187.815L233.545 229.243ZM242.411 231.97L240.855 231.451L254.139 191.607L255.695 192.126L242.411 231.97ZM240.855 231.451L236.355 229.951L249.639 190.107L254.139 191.607L240.855 231.451ZM231.497 216.003C227.166 216.209 224.9 216.56 220.773 218.329L204.226 179.726C214.098 175.494 221.558 174.429 229.499 174.051L231.497 216.003ZM222.699 217.384C221.667 217.957 220.821 218.426 220.045 218.863C219.275 219.295 218.684 219.634 218.204 219.919C217.724 220.205 217.443 220.384 217.29 220.487C217.14 220.587 217.192 220.561 217.366 220.419C217.55 220.269 217.875 219.986 218.265 219.566C218.665 219.136 219.068 218.632 219.442 218.065C220.213 216.898 220.519 215.983 220.565 215.837L180.512 203.197C182.386 197.259 185.566 192.159 190.815 187.876C194.443 184.916 199.177 182.406 202.299 180.671L222.699 217.384ZM255.695 192.126C260.83 193.838 265.802 196.003 270.554 198.595L250.439 235.465C247.872 234.064 245.185 232.895 242.411 231.97L255.695 192.126ZM223.999 228.529C222.389 228.529 220.784 228.688 219.206 229.003L210.967 187.819C215.258 186.961 219.623 186.529 223.999 186.529V228.529ZM283.169 218.091C281.518 236.827 261.168 242.718 248.846 234.502L272.147 199.558C266.74 195.953 259.624 195.114 253.23 197.901C246.604 200.788 241.975 207.093 241.331 214.404L283.169 218.091ZM205.269 231.273C207.351 230.961 209.371 230.322 211.254 229.381L192.468 191.816C194.535 190.783 196.752 190.081 199.038 189.738L205.269 231.273ZM211.254 229.381C195.588 237.215 174.127 223.43 180.512 203.197L220.565 215.837C226.452 197.185 206.651 184.723 192.468 191.816L211.254 229.381Z" fill="black" mask="url(#path-14-inside-1_43_10)"/>
<mask id="path-16-inside-2_43_10" fill="white">
<path d="M147.852 195.027C137.353 194.527 118.854 201.028 116.354 210.529C115.917 212.189 115.953 214.57 116.1 216.248C116.178 217.127 117.119 217.52 117.854 217.03C121.513 215.033 125.342 213.366 129.297 212.048L130.853 211.529L135.353 210.029L141.352 208.529L144.352 208.029L148.352 207.529H154.352C157.344 207.529 160.329 207.824 163.264 208.411L166.351 209.029L176.196 210.506C176.298 210.521 176.397 210.552 176.489 210.599C177.23 210.969 178.061 210.308 177.811 209.517C176.307 204.75 173.83 203.461 165.851 199.027C158.851 196.027 153.988 195.319 147.852 195.027Z"/>
</mask>
<path d="M116.354 210.529L96.0452 205.186V205.186L116.354 210.529ZM147.852 195.027L148.851 174.051L147.852 195.027ZM116.1 216.248L137.019 214.404V214.404L116.1 216.248ZM148.352 207.529V186.529C147.481 186.529 146.611 186.583 145.747 186.691L148.352 207.529ZM163.264 208.411L159.144 229.003H159.144L163.264 208.411ZM166.351 209.029L162.232 229.621C162.565 229.687 162.899 229.746 163.235 229.796L166.351 209.029ZM176.196 210.506L173.081 231.273L173.081 231.273L176.196 210.506ZM144.352 208.029L141.747 187.191C141.464 187.226 141.181 187.268 140.899 187.314L144.352 208.029ZM135.353 210.029L130.259 189.656C129.737 189.787 129.221 189.937 128.711 190.107L135.353 210.029ZM141.352 208.529L137.899 187.815C137.348 187.906 136.8 188.02 136.258 188.156L141.352 208.529ZM129.297 212.048L122.655 192.126L122.655 192.126L129.297 212.048ZM130.853 211.529L137.495 231.451L137.495 231.451L130.853 211.529ZM165.851 199.027L176.051 180.671C175.425 180.323 174.782 180.008 174.124 179.726L165.851 199.027ZM177.811 209.517L157.785 215.837L157.785 215.837L177.811 209.517ZM117.854 217.03L107.796 198.595C107.252 198.892 106.72 199.213 106.204 199.558L117.854 217.03ZM176.489 210.599L185.882 191.816L185.882 191.816L176.489 210.599ZM136.663 215.872C135.83 219.039 134.187 220.26 134.558 219.94C134.806 219.727 135.744 219.049 137.562 218.248C139.298 217.484 141.288 216.852 143.199 216.447C145.199 216.024 146.474 215.985 146.853 216.003L148.851 174.051C139.675 173.614 129.175 176.052 120.644 179.806C116.213 181.757 111.401 184.454 107.149 188.116C103.021 191.672 98.1282 197.269 96.0452 205.186L136.663 215.872ZM137.019 214.404C137.013 214.336 137.007 214.239 137.003 214.133C136.999 214.024 137 213.959 137 213.948C137.001 213.926 136.999 214.049 136.971 214.297C136.945 214.518 136.871 215.081 136.663 215.872L96.0452 205.186C94.6438 210.512 94.9889 215.906 95.1814 218.091L137.019 214.404ZM148.352 228.529H154.352V186.529H148.352V228.529ZM159.144 229.003L162.232 229.621L170.47 188.437L167.383 187.819L159.144 229.003ZM163.235 229.796L173.081 231.273L179.312 189.738L169.467 188.261L163.235 229.796ZM146.957 228.866L150.957 228.366L145.747 186.691L141.747 187.191L146.957 228.866ZM140.447 230.402L146.447 228.901L136.258 188.156L130.259 189.656L140.447 230.402ZM144.805 229.243L147.805 228.743L140.899 187.314L137.899 187.815L144.805 229.243ZM135.939 231.97L137.495 231.451L124.211 191.607L122.655 192.126L135.939 231.97ZM137.495 231.451L141.995 229.951L128.711 190.107L124.211 191.607L137.495 231.451ZM146.853 216.003C151.184 216.209 153.45 216.56 157.577 218.329L174.124 179.726C164.253 175.494 156.792 174.429 148.851 174.051L146.853 216.003ZM155.651 217.384C156.683 217.957 157.529 218.426 158.305 218.863C159.075 219.295 159.666 219.634 160.146 219.919C160.626 220.205 160.907 220.384 161.06 220.487C161.21 220.587 161.158 220.561 160.984 220.419C160.8 220.269 160.475 219.986 160.085 219.566C159.686 219.136 159.282 218.632 158.908 218.065C158.137 216.898 157.831 215.983 157.785 215.837L197.838 203.197C195.964 197.259 192.784 192.159 187.535 187.876C183.907 184.916 179.173 182.406 176.051 180.671L155.651 217.384ZM122.655 192.126C117.52 193.838 112.548 196.003 107.796 198.595L127.911 235.465C130.478 234.064 133.165 232.895 135.939 231.97L122.655 192.126ZM154.352 228.529C155.961 228.529 157.566 228.688 159.144 229.003L167.383 187.819C163.092 186.961 158.727 186.529 154.352 186.529V228.529ZM95.1814 218.091C96.8325 236.827 117.182 242.718 129.504 234.502L106.204 199.558C111.61 195.953 118.726 195.114 125.12 197.901C131.746 200.788 136.375 207.093 137.019 214.404L95.1814 218.091ZM173.081 231.273C170.999 230.961 168.979 230.322 167.096 229.381L185.882 191.816C183.815 190.783 181.598 190.081 179.312 189.738L173.081 231.273ZM167.096 229.381C182.762 237.215 204.223 223.43 197.838 203.197L157.785 215.837C151.899 197.185 171.699 184.723 185.882 191.816L167.096 229.381Z" fill="black" mask="url(#path-16-inside-2_43_10)"/>
<path d="M172 352H185H198" stroke="black" stroke-width="21"/>
<defs>
<linearGradient id="paint0_linear_43_10" x1="190" y1="168" x2="189.5" y2="424" gradientUnits="userSpaceOnUse">
<stop stop-color="#CE8FFF"/>
<stop offset="1" stop-color="#910FBE"/>
</linearGradient>
</defs>
</svg>
